<svg xmlns="http://www.w3.org/2000/svg" xmlns:xlink="http://www.w3.org/1999/xlink"><defs><clipPath id="a"><path fill="#fff" transform="translate(0 .5)" d="M0 0h27v34H0z"/></clipPath></defs><symbol id="cat-energy"><g fill="none"><path d="M1.62 21.96a9.43 9.43 0 0 1-1.6-5.72V7.76a9.56 9.56 0 0 1 1.5-5.82C2.62.61 4.32 0 6.83 0c2.5 0 4.1.61 5.1 1.74a7.43 7.43 0 0 1 1.51 5v2.04h-4.9V6.43c.03-.7-.07-1.39-.3-2.04a1.42 1.42 0 0 0-1.4-.82c-.71 0-1.21.2-1.41.72a6.72 6.72 0 0 0-.3 2.25v10.92a4.3 4.3 0 0 0 .4 2.15c.2.5.7.71 1.4.71s1.1-.2 1.3-.71c.23-.7.33-1.42.3-2.15v-2.45h4.91v2.05a7.92 7.92 0 0 1-1.5 5.1c-1 1.23-2.7 1.84-5.1 1.84-2.41-.1-4.22-.71-5.22-2.04ZM19.35.3h5.7l4.21 23.3h-4.6l-.8-4.91h-3.31l-.8 4.9h-4.7L19.34.31Zm4.1 15.33-1.2-9.1-1.2 9.1h2.4Zm9.32-11.44h-3.4V.3h11.9v3.78h-3.4v19.5h-5.1V4.2ZM50.4.3h8.8v2.46h-5.7v7.66h4.6v2.35h-4.6v8.57h5.7v2.35h-8.9V.31h.1Zm11.4 0h2.21l6.51 15.43V.3h2.6v23.28h-2l-6.6-15.93v15.93H61.8V.31Zm14.33 0h8.81v2.46h-5.7v7.66h4.6v2.35h-4.6v8.57h5.7v2.35h-8.81V.31Zm11.41 0h4.61a7.9 7.9 0 0 1 5.1 1.44c1.1.92 1.6 2.55 1.6 4.7 0 2.96-.9 4.8-2.8 5.4l3.21 11.65h-3.1l-3-10.93h-2.51V23.5h-3.2V.3h.1Zm4.41 10.01c1.03.1 2.06-.2 2.9-.81.6-.51.9-1.53.9-3.07a6.72 6.72 0 0 0-.3-2.24 2.58 2.58 0 0 0-1.1-1.23 4.49 4.49 0 0 0-2.2-.4h-1.4v7.65h1.2v.1Zm10.91 11.55a10.49 10.49 0 0 1-1.4-5.93V8.17a17 17 0 0 1 .5-4.4c.34-1.06 1-2 1.9-2.65 1.12-.67 2.41-1 3.71-.92 2.1 0 3.6.51 4.5 1.64a7.93 7.93 0 0 1 1.41 5.1v.82h-3v-.71c0-.86-.07-1.71-.2-2.56a2.05 2.05 0 0 0-.8-1.32 3.05 3.05 0 0 0-1.9-.51 2.96 2.96 0 0 0-2.01.6 2.3 2.3 0 0 0-.8 1.64c-.13.92-.2 1.84-.2 2.76v8.68a9.43 9.43 0 0 0 .6 3.88c.4.82 1.2 1.12 2.4 1.12a2.38 2.38 0 0 0 2.4-1.22c.53-1.3.77-2.69.7-4.09V14.4h-2.9v-2.35h5.81V23.6h-2l-.3-2.65a4.17 4.17 0 0 1-1.56 2.2c-.74.53-1.64.8-2.55.76a4.92 4.92 0 0 1-4.3-2.04Zm17.13-6.44L115.09.41h3l3.5 11.23L125 .41h3l-4.9 15.01v8.17h-3.01v-8.17h-.1Z" fill="CurrentColor"/></g></symbol><symbol id="html-academy"><g fill="none"><g clip-path="url(#a)"><path d="M13.64.52 13.5.5 0 1.9v24.61l13.5 7.99L27 26.51V1.91L13.64.5Zm11.6 25L13.5 32.46 1.77 25.52v-10.1l11.68 6.93.02 1.25-8.02-4.75v1.23l8.04 4.8.02 1.3-8.05-4.76v1.22l8.04 4.81 8.12-4.83V17.4l3.62-2.15v10.26Zm0-11.57L22 15.83l-1.48.88-7.06-4.19-.01 1.23 6.04 3.57-.06.03-.13.07-.86.5-4.98-2.95-.01 1.22 3.93 2.33-.93.61-.02.01-2.97-1.74-.01 1.23 1.94 1.13-1.98 1.19L1.8 14.08l11.63-6.96 11.8 6.83Zm0-1.22L13.43 5.8 1.77 12.72V3.49L13.5 2.26 25.23 3.5v9.24Z" fill="CurrentColor"/></g></g></symbol><symbol id="icon-button"><g fill="none"><rect x="1" y="1" width="38" height="38" rx="19" fill="#fff"/><rect x="1" y="1" width="38" height="38" rx="19" stroke="CurrentColor" stroke-width="2"/><path d="m16 11-8 9 8 9V11ZM32 20l-8-9v18l8-9Z" fill="CurrentColor"/></g></symbol><symbol id="mail"><g fill="none"><path d="M1.5 8.5v8h17v-8m-17-5h17v2l-8.5 6-8.5-6v-2Z" stroke="CurrentColor" stroke-linecap="round" stroke-linejoin="round"/></g></symbol><symbol id="phone"><g fill="none"><path d="M10 10h8.5m0 0L16 7.5m2.5 2.5L16 12.5m-7.5-10v5h-3v5h3v5H6c-1.5 0-2.5-1-2.5-2.5V5c0-1.5 1-2.5 2.5-2.5h2.5Z" stroke="CurrentColor" stroke-linecap="round" stroke-linejoin="round"/></g></symbol></svg>